<?xml version="1.0" encoding="utf-8"?>
<!-- Generator: Adobe Illustrator 18.0.0, SVG Export Plug-In . SVG Version: 6.00 Build 0)  -->
<!DOCTYPE svg PUBLIC "-//W3C//DTD SVG 1.1//EN" "http://www.w3.org/Graphics/SVG/1.1/DTD/svg11.dtd">
<svg version="1.1" id="Layer_1" xmlns="http://www.w3.org/2000/svg" xmlns:xlink="http://www.w3.org/1999/xlink" x="0px" y="0px"
	 viewBox="0 0 1152.1 304.9" enable-background="new 0 0 1152.1 304.9" xml:space="preserve">
<g id="D1wfqI.tif">
	<g>
		<path fill="none" d="M486,166.5c-12.2-7.1-23.4-13.8-34.7-20.3c-0.9-0.5-2.6-0.3-3.5,0.3c-16.7,10.2-30.4,23.3-37.1,42.2
			c-11,31.1-0.6,67.1,25.7,89.4c27.4,23.2,59.2,30.3,94.2,25.3c54.4-7.8,90.8-60.1,79.4-113.9c-5.1-24-19.2-42-38-56.9
			c-18.7-14.8-40.9-23.4-61.8-34.4c-7.2-3.8-14.7-7.2-21.2-12c-4.5-3.3-8.9-8.1-10.8-13.2c-4.3-11.2-2.9-22.6,5.5-31.7
			c9.1-9.9,20.9-12.8,33.8-9.5c21.2,5.4,26.8,26.1,15.3,38.3c10,5.5,20,11,29.9,16.5c18.8-22.6,13.8-56.7-10.8-73.7
			C532.5-0.7,510.7-2.3,488.3,2.4c-42.6,9.1-62,62.7-32,96.3c9.6,10.8,21.8,17.9,34.4,24.4c13.3,6.9,27,12.9,40,20.4
			c22.7,13.1,38.9,31.3,41.4,58.7c1.8,20.1-3.4,38-18.7,52c-27.5,25.2-77.7,20.1-99.7-9.9c-14.2-19.4-12.6-42.6,4.1-60
			C465.4,176.4,474.5,170.7,486,166.5z M661.6,218.5c0-2.1,0-3.9,0-5.7c0-22.7,0-45.3,0-68c0-3.5,0.3-7,1.1-10.4
			c2-9,10.1-13.8,21.3-13.1c9.1,0.6,14.6,5.8,15.6,15c0.5,4.3,0.8,8.6,0.8,12.9c0.1,49.3,0,98.6,0,147.9c0,1.9,0,3.8,0,5.7
			c11.2,0,21.6,0,32.2,0c0-2.3,0-4.3,0-6.3c0-49.8,0-99.6,0-149.4c0-3.3,0.3-6.7,0.9-9.9c2-10.9,9.4-16.4,21.2-16.1
			c9.8,0.3,14.7,5.3,16.3,16.6c0.3,2.1,0.4,4.3,0.4,6.5c-0.1,33.6-0.2,67.3-0.3,100.9c0,2.1,0,4.2,0,6.1c11.6,0,22.3,0,33.3,0
			c0-2.5,0-4.5,0-6.4c0-34,0-68,0-102c0-5.6-0.2-11.3-0.9-16.9c-1.6-13.7-8.8-23.5-21.4-29c-18.3-8-39.9-1.9-51.6,14.2
			c-0.5,0.7-1.1,1.4-2.2,2.8c-6.3-15.2-18-20.1-32.9-20.2c-14.8-0.1-26.3,5.5-34.1,18.6c-0.4-0.2-0.7-0.4-1.1-0.7c0-5,0-10,0-14.9
			c-10.8,0-20.9,0-31.2,0c0,40.7,0,81.1,0,121.7C640,218.5,650.5,218.5,661.6,218.5z M67.9,33.1c0,90.6,0,180.2,0,269.9
			c11.7,0,23,0,34.7,0c0-90,0-179.7,0-269.8c2.3,0,4,0,5.8,0c14.5,0,29-0.1,43.5,0.1c3.5,0.1,5.3-1.1,6.7-4.3
			c3.3-7.4,7.2-14.6,10.8-21.9c0.5-1.1,0.8-2.3,1.4-3.9c-18.1,0-35.6,0-53.1,0c-32.8,0-65.6,0-98.4,0.1c-1.8,0-4.5,0.5-5.2,1.6
			C9.3,13.9,4.9,23.2,0,33.1C23,33.1,45,33.1,67.9,33.1z M201.6,251.4c11.2,0,21.9,0,32.8,0c0.1-1.2,0.2-2,0.2-2.8
			c0-36.7,0.1-73.3-0.1-110c0-6-0.3-12.1-1.7-17.8c-3.7-14.5-13.8-23-27.9-26.2c-16-3.6-31.2-2-43.3,10.7c-1.5,1.6-2.9,3.3-5.2,6.1
			c0-20.1,0-38.7,0-57.3c-10.7,0-21,0-31.4,0c0,55,0,109.7,0,164.4c10.7,0,20.9,0,31.7,0c0-2.1,0-3.9,0-5.7c0-20.5-0.4-41,0.2-61.5
			c0.2-6.8,1.9-13.9,4.7-20.1c4.1-9.1,14.3-12.8,25.6-10.9c7.9,1.3,12.7,7.2,14.3,17.6c0.3,2,0.2,4,0.2,6c0,34,0,68,0,102
			C201.6,247.6,201.6,249.4,201.6,251.4z M284.7,166.2c1.7,0,3.5,0,5.3,0c26,0,52-0.1,78,0.1c4.3,0,5.6-1.4,5.2-5.4
			c-0.4-4.6-0.2-9.3-0.6-14c-1.3-14.9-6.5-28-17.3-38.8c-10.8-10.8-24.3-14.6-38.9-15.5c-28.3-1.7-52.8,12.2-61.1,39.4
			c-3.8,12.4-4.7,25.1-2.7,38c3.1,20.5,13.3,36.1,32,45.3c19.4,9.6,39.5,9.4,59.5,1.6c9.6-3.8,17.2-10.4,23.2-19.7
			c-9.1-4.5-18-8.9-26.7-13.2c-12.2,12.4-25.1,15.3-39.6,9.1C290.4,188.8,284.1,178.5,284.7,166.2z M852.9,125
			c9.4-7.8,19.6-8.2,30.4-5.3c1.4,0.4,2.8,1.1,4.1,1.9c4.2,2.5,7.6,5.8,7,11.1c-0.6,5.6-4.9,8.3-9.8,9.2c-9.3,1.7-18.7,2.9-28.1,4.3
			C832,150,820,161,818.1,182.9c-1.5,17.8,6,31.6,24.1,37.2c14.2,4.4,28,2.7,40.6-5.5c4.1-2.6,7.8-5.8,12.4-9.3c0,4.7,0,8.6,0,12.8
			c10.5,0,20.4,0,30.3,0c0.2-0.7,0.5-1.2,0.5-1.6c0.2-29.3,0.6-58.6,0.3-87.9c-0.1-15.1-7.6-25.6-22.5-30.6
			c-18.2-6.1-36.5-6.8-54.9-1.4c-8.2,2.4-15.5,6.6-21.4,13.7C836.1,115.2,844.4,120.1,852.9,125z M1043.9,196.5c1,1.3,1.7,2.2,2.5,3
			c22.3,22.3,49.1,28.5,79,20.5c19.8-5.3,31-26.9,25.2-45.8c-3.2-10.6-10.9-17.5-20.6-21.9c-9.2-4.2-18.8-7.4-28.3-11.1
			c-4.3-1.7-8.7-3.3-12.9-5.2c-3.9-1.9-7.3-4.7-6.9-9.5c0.4-4.9,4.1-7.3,8.5-8.7c1.1-0.3,2.3-0.6,3.4-0.7c9-1,17.5,0.5,25.2,5.6
			c1.2,0.8,3.4,1.5,4.4,0.9c7.8-4.3,15.5-8.9,23.3-13.4c-10.2-10.3-27.8-17.2-44.5-17.5c-11-0.1-22.1-0.1-32.1,5.4
			c-13.7,7.5-21,19.3-21.3,34.8c-0.3,14.7,8.8,23.2,21.1,28.7c10.3,4.6,21,8.2,31.4,12.5c4.3,1.8,8.6,3.6,12.5,6.2
			c7.3,4.8,6.5,12.6-1.5,16.3c-1.8,0.8-3.8,1.3-5.7,1.6c-10.5,1.3-20.2-0.8-28.8-6.9c-3.7-2.6-7.1-5.4-10.9-8.3
			C1059.3,187.6,1051.7,192,1043.9,196.5z M977.7,303.9c0-83.6,0-166.9,0-250.2c-10.8,0-21.2,0-31.5,0c0,83.6,0,166.9,0,250.2
			C956.9,303.9,967.2,303.9,977.7,303.9z M1028.7,252.5c0-83.2,0-166,0-248.8c-10.7,0-20.9,0-31.2,0c0,83.1,0,165.8,0,248.8
			C1008,252.5,1018.1,252.5,1028.7,252.5z"/>
		<path d="M486,166.5c-11.5,4.3-20.6,10-28.2,17.9c-16.7,17.3-18.3,40.6-4.1,60c22.1,30.1,72.2,35.1,99.7,9.9
			c15.3-14,20.5-31.9,18.7-52c-2.4-27.4-18.7-45.6-41.4-58.7c-12.9-7.5-26.7-13.4-40-20.4c-12.6-6.5-24.8-13.6-34.4-24.4
			c-30-33.6-10.6-87.3,32-96.3c22.4-4.8,44.2-3.1,63.6,10.3c24.6,17,29.6,51.1,10.8,73.7c-9.9-5.4-19.8-10.9-29.9-16.5
			c11.4-12.1,5.8-32.8-15.3-38.3c-12.9-3.3-24.7-0.4-33.8,9.5c-8.4,9.1-9.8,20.5-5.5,31.7c1.9,5.1,6.3,9.9,10.8,13.2
			c6.5,4.8,14,8.3,21.2,12c20.9,10.9,43,19.6,61.8,34.4c18.8,14.8,32.9,32.9,38,56.9c11.4,53.9-24.9,106.1-79.4,113.9
			c-35,5-66.8-2.1-94.2-25.3c-26.3-22.3-36.8-58.3-25.7-89.4c6.7-18.9,20.4-32,37.1-42.2c0.9-0.6,2.7-0.8,3.5-0.3
			C462.6,152.7,473.8,159.3,486,166.5z"/>
		<path d="M661.6,218.5c-11.1,0-21.6,0-32.5,0c0-40.6,0-81,0-121.7c10.3,0,20.4,0,31.2,0c0,4.9,0,9.9,0,14.9
			c0.4,0.2,0.7,0.4,1.1,0.7c7.7-13.2,19.3-18.7,34.1-18.6c14.9,0.1,26.7,4.9,32.9,20.2c1.1-1.3,1.7-2,2.2-2.8
			c11.7-16.1,33.3-22.2,51.6-14.2c12.6,5.5,19.8,15.4,21.4,29c0.6,5.6,0.9,11.3,0.9,16.9c0.1,34,0,68,0,102c0,2,0,4,0,6.4
			c-11,0-21.7,0-33.3,0c0-2,0-4,0-6.1c0.1-33.6,0.2-67.3,0.3-100.9c0-2.2-0.1-4.3-0.4-6.5c-1.6-11.3-6.5-16.3-16.3-16.6
			c-11.7-0.3-19.2,5.2-21.2,16.1c-0.6,3.3-0.9,6.6-0.9,9.9c-0.1,49.8,0,99.6,0,149.4c0,2,0,4,0,6.3c-10.7,0-21.1,0-32.2,0
			c0-1.8,0-3.8,0-5.7c0-49.3,0-98.6,0-147.9c0-4.3-0.3-8.6-0.8-12.9c-1-9.2-6.6-14.4-15.6-15c-11.2-0.8-19.3,4.1-21.3,13.1
			c-0.8,3.4-1.1,6.9-1.1,10.4c-0.1,22.7,0,45.3,0,68C661.6,214.6,661.6,216.4,661.6,218.5z"/>
		<path d="M67.9,33.1c-22.9,0-44.9,0-67.9,0c4.9-10,9.3-19.2,14.1-28.2c0.6-1.2,3.4-1.6,5.2-1.6c32.8-0.1,65.6-0.1,98.4-0.1
			c17.5,0,35,0,53.1,0c-0.6,1.6-0.8,2.8-1.4,3.9c-3.6,7.3-7.5,14.5-10.8,21.9c-1.5,3.2-3.2,4.3-6.7,4.3c-14.5-0.2-29-0.1-43.5-0.1
			c-1.8,0-3.6,0-5.8,0c0,90.2,0,179.9,0,269.8c-11.7,0-23,0-34.7,0C67.9,213.4,67.9,123.7,67.9,33.1z"/>
		<path d="M201.6,251.4c0-2,0-3.8,0-5.6c0-34,0-68,0-102c0-2,0.1-4-0.2-6c-1.6-10.4-6.4-16.2-14.3-17.6
			c-11.3-1.9-21.5,1.8-25.6,10.9c-2.8,6.2-4.5,13.3-4.7,20.1c-0.6,20.5-0.2,41-0.2,61.5c0,1.8,0,3.6,0,5.7c-10.8,0-21,0-31.7,0
			c0-54.7,0-109.4,0-164.4c10.4,0,20.7,0,31.4,0c0,18.6,0,37.2,0,57.3c2.4-2.8,3.7-4.5,5.2-6.1c12.2-12.7,27.4-14.3,43.3-10.7
			c14.1,3.2,24.3,11.7,27.9,26.2c1.4,5.7,1.7,11.9,1.7,17.8c0.1,36.7,0.1,73.3,0.1,110c0,0.8-0.1,1.6-0.2,2.8
			C223.5,251.4,212.9,251.4,201.6,251.4z"/>
		<path d="M284.7,166.2c-0.6,12.3,5.8,22.6,16.3,27.1c14.5,6.2,27.4,3.3,39.6-9.1c8.7,4.3,17.6,8.7,26.7,13.2
			c-6,9.2-13.6,15.9-23.2,19.7c-19.9,7.8-40,8-59.5-1.6c-18.7-9.2-28.9-24.8-32-45.3c-1.9-12.9-1.1-25.6,2.7-38
			c8.3-27.2,32.8-41.1,61.1-39.4c14.6,0.9,28.1,4.7,38.9,15.5c10.8,10.7,16,23.9,17.3,38.8c0.4,4.6,0.2,9.3,0.6,14
			c0.3,4-0.9,5.4-5.2,5.4c-26-0.2-52-0.1-78-0.1C288.2,166.2,286.4,166.2,284.7,166.2z M285.3,144.5c18.2,0,36.1,0,53.9,0
			c-0.2-14-10.3-24.5-24-25.2C297.9,118.4,287.1,127.3,285.3,144.5z"/>
		<path d="M852.9,125c-8.5-5-16.8-9.8-25.4-14.7c5.9-7.1,13.2-11.3,21.4-13.7c18.4-5.4,36.7-4.7,54.9,1.4
			c14.9,5,22.3,15.5,22.5,30.6c0.3,29.3-0.2,58.6-0.3,87.9c0,0.5-0.3,0.9-0.5,1.6c-9.9,0-19.8,0-30.3,0c0-4.1,0-8,0-12.8
			c-4.6,3.5-8.4,6.6-12.4,9.3c-12.6,8.2-26.4,9.9-40.6,5.5c-18-5.6-25.6-19.5-24.1-37.2C820,161,832,150,856.5,146.3
			c9.4-1.4,18.8-2.6,28.1-4.3c4.9-0.9,9.2-3.6,9.8-9.2c0.6-5.3-2.7-8.6-7-11.1c-1.3-0.8-2.6-1.5-4.1-1.9
			C872.5,116.8,862.3,117.3,852.9,125z M894.8,160.4c-7.9,1.8-15,3.4-22,5.1c-4.6,1.1-9.4,2.1-13.8,4c-6.3,2.7-9,8-8.9,14.8
			c0.2,6.1,2.6,10.8,8.7,13.2c13.7,5.5,32.3-4.5,34.6-19.1C894.4,172.4,894.4,166.2,894.8,160.4z"/>
		<path d="M1043.9,196.5c7.8-4.5,15.4-8.9,23-13.3c3.7,2.9,7.2,5.7,10.9,8.3c8.7,6.2,18.4,8.2,28.8,6.9c1.9-0.2,3.9-0.8,5.7-1.6
			c8-3.6,8.9-11.5,1.5-16.3c-3.8-2.5-8.2-4.4-12.5-6.2c-10.4-4.3-21.2-7.9-31.4-12.5c-12.2-5.5-21.4-14-21.1-28.7
			c0.3-15.6,7.6-27.3,21.3-34.8c10-5.5,21.1-5.6,32.1-5.4c16.7,0.2,34.2,7.2,44.5,17.5c-7.8,4.6-15.5,9.1-23.3,13.4
			c-1,0.6-3.2-0.2-4.4-0.9c-7.7-5.1-16.2-6.6-25.2-5.6c-1.1,0.1-2.3,0.4-3.4,0.7c-4.4,1.3-8.1,3.7-8.5,8.7c-0.4,4.8,3,7.6,6.9,9.5
			c4.2,2,8.6,3.6,12.9,5.2c9.4,3.7,19.1,6.8,28.3,11.1c9.6,4.4,17.3,11.2,20.6,21.9c5.7,18.9-5.4,40.5-25.2,45.8
			c-29.8,8-56.7,1.8-79-20.5C1045.6,198.7,1044.9,197.8,1043.9,196.5z"/>
		<path d="M977.7,303.9c-10.5,0-20.8,0-31.5,0c0-83.3,0-166.6,0-250.2c10.3,0,20.7,0,31.5,0C977.7,137,977.7,220.3,977.7,303.9z"/>
		<path d="M1028.7,252.5c-10.6,0-20.7,0-31.2,0c0-83,0-165.7,0-248.8c10.2,0,20.5,0,31.2,0C1028.7,86.4,1028.7,169.3,1028.7,252.5z"
			/>
		<path fill="#FFFFFF" d="M285.3,144.5c1.8-17.2,12.6-26.1,29.9-25.2c13.7,0.7,23.8,11.2,24,25.2
			C321.4,144.5,303.5,144.5,285.3,144.5z"/>
		<path fill="#FFFFFF" d="M894.8,160.4c-0.4,5.8-0.4,12-1.3,18c-2.3,14.6-20.9,24.6-34.6,19.1c-6-2.4-8.5-7.1-8.7-13.2
			c-0.2-6.8,2.5-12.1,8.9-14.8c4.4-1.8,9.2-2.8,13.8-4C879.8,163.8,886.9,162.2,894.8,160.4z"/>
	</g>
</g>
</svg>
