<?xml version="1.0" encoding="utf-8"?>
<!-- Generator: Adobe Illustrator 18.0.0, SVG Export Plug-In . SVG Version: 6.00 Build 0)  -->
<!DOCTYPE svg PUBLIC "-//W3C//DTD SVG 1.1//EN" "http://www.w3.org/Graphics/SVG/1.1/DTD/svg11.dtd">
<svg version="1.1" id="Layer_1" xmlns="http://www.w3.org/2000/svg" xmlns:xlink="http://www.w3.org/1999/xlink" x="0px" y="0px"
	 viewBox="0 0 512 512" enable-background="new 0 0 512 512" xml:space="preserve">
<rect fill="#FEED55" width="512" height="512"/>
<path fill="#454545" d="M232.1,271.4c-11.8,4.4-21.2,10.4-29.2,18.4c-17.2,17.8-19,42-4.2,62c22.8,31.2,74.6,36.2,103,10.2
	c15.8-14.4,21.2-33,19.4-53.8c-2.4-28.4-19.4-47.2-42.8-60.6c-13.4-7.8-27.6-13.8-41.4-21c-13-6.8-25.6-14-35.6-25.2
	c-31-34.8-11-90.2,33-99.6c23.2-5,45.6-3.2,65.8,10.6c25.4,17.6,30.6,52.8,11.2,76.2c-10.2-5.6-20.4-11.2-30.8-17
	c11.8-12.6,6-33.8-15.8-39.6c-13.4-3.4-25.6-0.4-35,9.8c-8.6,9.4-10.2,21.2-5.6,32.8c2,5.2,6.6,10.2,11.2,13.6
	c6.8,5,14.4,8.6,22,12.4c21.6,11.2,44.4,20.2,63.8,35.6c19.4,15.2,34,34,39.2,58.8c11.8,55.6-25.8,109.6-82,117.8
	c-36.2,5.2-69-2.2-97.4-26.2c-27.2-23-38-60.2-26.6-92.4c7-19.6,21-33,38.4-43.6c1-0.6,2.8-0.8,3.6-0.4
	C207.9,257.2,219.5,264,232.1,271.4z"/>
</svg>
