<?xml version="1.0" encoding="utf-8"?>
<!-- Generator: Adobe Illustrator 18.0.0, SVG Export Plug-In . SVG Version: 6.00 Build 0)  -->
<!DOCTYPE svg PUBLIC "-//W3C//DTD SVG 1.1//EN" "http://www.w3.org/Graphics/SVG/1.1/DTD/svg11.dtd">
<svg version="1.1" id="Layer_1" xmlns="http://www.w3.org/2000/svg" xmlns:xlink="http://www.w3.org/1999/xlink" x="0px" y="0px"
	 viewBox="0 131.7 595.2 157.6" enable-background="new 0 131.7 595.2 157.6" xml:space="preserve">
<path fill="#FFFFFF" d="M251.1,217.7c-5.9,2.2-10.6,5.2-14.6,9.2c-8.6,8.9-9.5,21-2.1,31c11.4,15.6,37.3,18.1,51.5,5.1
	c7.9-7.2,10.6-16.5,9.7-26.9c-1.2-14.2-9.7-23.6-21.4-30.3c-6.7-3.9-13.8-6.9-20.7-10.5c-6.5-3.4-12.8-7-17.8-12.6
	c-15.5-17.4-5.5-45.1,16.5-49.8c11.6-2.5,22.8-1.6,32.9,5.3c12.7,8.8,15.3,26.4,5.6,38.1c-5.1-2.8-10.2-5.6-15.4-8.5
	c5.9-6.3,3-16.9-7.9-19.8c-6.7-1.7-12.8-0.2-17.5,4.9c-4.3,4.7-5.1,10.6-2.8,16.4c1,2.6,3.3,5.1,5.6,6.8c3.4,2.5,7.2,4.3,11,6.2
	c10.8,5.6,22.2,10.1,31.9,17.8c9.7,7.6,17,17,19.6,29.4c5.9,27.8-12.9,54.8-41,58.9c-18.1,2.6-34.5-1.1-48.7-13.1
	c-13.6-11.5-19-30.1-13.3-46.2c3.5-9.8,10.5-16.5,19.2-21.8c0.5-0.3,1.4-0.4,1.8-0.2C239,210.6,244.8,214,251.1,217.7z"/>
<path fill="#FFFFFF" d="M341.8,244.6c-5.7,0-11.2,0-16.8,0c0-21,0-41.9,0-62.9c5.3,0,10.5,0,16.1,0c0,2.5,0,5.1,0,7.7
	c0.2,0.1,0.4,0.2,0.6,0.4c4-6.8,10-9.7,17.6-9.6c7.7,0.1,13.8,2.5,17,10.4c0.6-0.7,0.9-1,1.1-1.4c6-8.3,17.2-11.5,26.7-7.3
	c6.5,2.8,10.2,8,11.1,15c0.3,2.9,0.5,5.8,0.5,8.7c0.1,17.6,0,35.1,0,52.7c0,1,0,2.1,0,3.3c-5.7,0-11.2,0-17.2,0c0-1,0-2.1,0-3.2
	c0.1-17.4,0.1-34.8,0.2-52.1c0-1.1-0.1-2.2-0.2-3.4c-0.8-5.8-3.4-8.4-8.4-8.6c-6-0.2-9.9,2.7-11,8.3c-0.3,1.7-0.5,3.4-0.5,5.1
	c-0.1,25.7,0,51.5,0,77.2c0,1,0,2.1,0,3.3c-5.5,0-10.9,0-16.6,0c0-0.9,0-2,0-2.9c0-25.5,0-50.9,0-76.4c0-2.2-0.2-4.4-0.4-6.7
	c-0.5-4.8-3.4-7.4-8.1-7.8c-5.8-0.4-10,2.1-11,6.8c-0.4,1.8-0.6,3.6-0.6,5.4c-0.1,11.7,0,23.4,0,35.1
	C341.8,242.6,341.8,243.5,341.8,244.6z"/>
<path fill="#FFFFFF" d="M35.1,148.8c-11.8,0-23.2,0-35.1,0c2.5-5.2,4.8-9.9,7.3-14.6c0.3-0.6,1.8-0.8,2.7-0.8
	c16.9-0.1,33.9-0.1,50.8-0.1c9,0,18.1,0,27.4,0c-0.3,0.8-0.4,1.4-0.7,2c-1.9,3.8-3.9,7.5-5.6,11.3c-0.8,1.7-1.7,2.2-3.5,2.2
	c-7.5-0.1-15-0.1-22.5-0.1c-0.9,0-1.9,0-3,0c0,46.6,0,93,0,139.4c-6,0-11.9,0-17.9,0C35.1,242,35.1,195.6,35.1,148.8z"/>
<path fill="#FFFFFF" d="M104.2,261.6c0-1,0-2,0-2.9c0-17.6,0-35.1,0-52.7c0-1,0.1-2.1-0.1-3.1c-0.8-5.4-3.3-8.4-7.4-9.1
	c-5.8-1-11.1,0.9-13.2,5.6c-1.4,3.2-2.3,6.9-2.4,10.4C80.8,220.4,81,231,81,241.6c0,0.9,0,1.9,0,2.9c-5.6,0-10.9,0-16.4,0
	c0-28.3,0-56.5,0-84.9c5.4,0,10.7,0,16.2,0c0,9.6,0,19.2,0,29.6c1.2-1.4,1.9-2.3,2.7-3.2c6.3-6.6,14.2-7.4,22.4-5.5
	c7.3,1.7,12.6,6,14.4,13.5c0.7,2.9,0.9,6.1,0.9,9.2c0.1,19,0.1,37.9,0.1,56.8c0,0.4-0.1,0.8-0.1,1.4
	C115.5,261.6,110,261.6,104.2,261.6z"/>
<path fill="#FFFFFF" d="M147.1,217.6c-0.3,6.4,3,11.7,8.4,14c7.5,3.2,14.2,1.7,20.5-4.7c4.5,2.2,9.1,4.5,13.8,6.8
	c-3.1,4.8-7,8.2-12,10.2c-10.3,4-20.7,4.1-30.7-0.8c-9.7-4.8-14.9-12.8-16.5-23.4c-1-6.7-0.6-13.2,1.4-19.6
	c4.3-14.1,16.9-21.2,31.6-20.4c7.5,0.5,14.5,2.4,20.1,8c5.6,5.5,8.3,12.3,8.9,20c0.2,2.4,0.1,4.8,0.3,7.2c0.2,2.1-0.5,2.8-2.7,2.8
	c-13.4-0.1-26.9-0.1-40.3-0.1C148.9,217.6,148,217.6,147.1,217.6z M147.4,206.4c9.4,0,18.7,0,27.8,0c-0.1-7.2-5.3-12.7-12.4-13
	C153.9,192.9,148.3,197.5,147.4,206.4z"/>
<path fill="#FFFFFF" d="M440.7,196.3c-4.4-2.6-8.7-5.1-13.1-7.6c3-3.7,6.8-5.8,11.1-7.1c9.5-2.8,19-2.4,28.4,0.7
	c7.7,2.6,11.5,8,11.6,15.8c0.2,15.1-0.1,30.3-0.2,45.4c0,0.3-0.2,0.5-0.3,0.8c-5.1,0-10.2,0-15.7,0c0-2.1,0-4.1,0-6.6
	c-2.4,1.8-4.3,3.4-6.4,4.8c-6.5,4.2-13.6,5.1-21,2.8c-9.3-2.9-13.2-10.1-12.5-19.2c1-11.3,7.2-17,19.8-18.9
	c4.9-0.7,9.7-1.3,14.5-2.2c2.5-0.5,4.8-1.9,5.1-4.8c0.3-2.7-1.4-4.4-3.6-5.7c-0.7-0.4-1.3-0.8-2.1-1
	C450.8,192,445.5,192.3,440.7,196.3z M462.3,214.6c-4.1,0.9-7.8,1.8-11.4,2.6c-2.4,0.6-4.9,1.1-7.1,2.1c-3.3,1.4-4.7,4.1-4.6,7.6
	c0.1,3.2,1.3,5.6,4.5,6.8c7.1,2.8,16.7-2.3,17.9-9.9C462.1,220.8,462.1,217.6,462.3,214.6z"/>
<path fill="#FFFFFF" d="M539.4,233.2c4-2.3,8-4.6,11.9-6.9c1.9,1.5,3.7,2.9,5.6,4.3c4.5,3.2,9.5,4.2,14.9,3.6c1-0.1,2-0.4,2.9-0.8
	c4.1-1.9,4.6-5.9,0.8-8.4c-2-1.3-4.2-2.3-6.5-3.2c-5.4-2.2-11-4.1-16.2-6.5c-6.3-2.8-11.1-7.2-10.9-14.8c0.2-8.1,3.9-14.1,11-18
	c5.2-2.8,10.9-2.9,16.6-2.8c8.6,0.1,17.7,3.7,23,9c-4,2.4-8,4.7-12,6.9c-0.5,0.3-1.7-0.1-2.3-0.5c-4-2.6-8.4-3.4-13-2.9
	c-0.6,0.1-1.2,0.2-1.8,0.4c-2.3,0.7-4.2,1.9-4.4,4.5c-0.2,2.5,1.6,3.9,3.6,4.9c2.2,1,4.4,1.9,6.7,2.7c4.9,1.9,9.9,3.5,14.6,5.7
	c5,2.3,8.9,5.8,10.6,11.3c2.9,9.8-2.8,20.9-13,23.7c-15.4,4.1-29.3,0.9-40.8-10.6C540.3,234.4,539.9,233.9,539.4,233.2z"/>
<path fill="#FFFFFF" d="M505.2,288.7c-5.4,0-10.7,0-16.3,0c0-43,0-86.1,0-129.3c5.3,0,10.7,0,16.3,0
	C505.2,202.5,505.2,245.5,505.2,288.7z"/>
<path fill="#FFFFFF" d="M531.5,262.2c-5.5,0-10.7,0-16.1,0c0-42.9,0-85.6,0-128.6c5.3,0,10.6,0,16.1,0
	C531.5,176.3,531.5,219.2,531.5,262.2z"/>
</svg>
